<?xml version="1.0" encoding="UTF-8" standalone="no"?>
<svg
   id="a"
   viewBox="0 0 645.33 370.33"
   version="1.1"
   sodipodi:docname="architecture-load-balancer-8-node.svg"
   inkscape:version="1.2.2 (b0a8486541, 2022-12-01)"
   xmlns:inkscape="http://www.inkscape.org/namespaces/inkscape"
   xmlns:sodipodi="http://sodipodi.sourceforge.net/DTD/sodipodi-0.dtd"
   xmlns="http://www.w3.org/2000/svg"
   xmlns:svg="http://www.w3.org/2000/svg">
  <sodipodi:namedview
     id="namedview9113"
     pagecolor="#505050"
     bordercolor="#eeeeee"
     borderopacity="1"
     inkscape:showpageshadow="0"
     inkscape:pageopacity="0"
     inkscape:pagecheckerboard="0"
     inkscape:deskcolor="#505050"
     showgrid="false"
     inkscape:zoom="2.9821158"
     inkscape:cx="184.60048"
     inkscape:cy="207.40308"
     inkscape:window-width="3840"
     inkscape:window-height="2123"
     inkscape:window-x="3840"
     inkscape:window-y="0"
     inkscape:window-maximized="1"
     inkscape:current-layer="a" />
  <defs
     id="defs8900">
    <style
       id="style8898">.b{font-family:RobotoMono-Regular, 'Roboto Mono';font-size:11.39px;font-variation-settings:'wght' 400;}.c{letter-spacing:-.04em;}.d{fill:#f6f6f6;}.e,.f{fill:#fff;}.g{fill:#cf2144;}.h{fill:#1b1717;}.i{fill:#0c1835;}.j{letter-spacing:.02em;}.k{stroke-width:1.47px;}.k,.l,.m,.n{fill:none;stroke-miterlimit:10;}.k,.m{stroke:#1b1717;}.l{stroke-dasharray:0 0 3 3;}.l,.n{stroke:#cf2144;}.o{letter-spacing:-.03em;}.p{font-size:10px;}.p,.f{font-family:Inter-Bold, Inter;font-variation-settings:'wght' 700, 'slnt' 0;font-weight:700;}.f{font-size:14px;}</style>
  </defs>
  <path
     id="polyline8902"
     class="k"
     style="fill:none;stroke:#1b1717;stroke-width:1.47px;stroke-miterlimit:10"
     d="m 321.6,156.22 v 38.77 H 91.94 v 31.12" />
  <path
     id="polyline8904"
     class="h"
     style="fill:#1b1717"
     d="m 92.28,223.86 h 2.19 l -2.54,4.38 -2.52,-4.38 h 1.88" />
  <path
     id="polyline8906"
     class="g"
     style="fill:#cf2144"
     d="m 90.75,304.1 h 2.19 l -2.54,4.38 -2.53,-4.38 h 1.89" />
  <path
     id="polyline8908"
     class="g"
     style="fill:#cf2144"
     d="m 90.06,278.22 h -2.19 l 2.54,-4.38 2.53,4.38 h -1.89" />
  <path
     id="polyline8910"
     class="h"
     style="fill:#1b1717"
     d="m 321.94,121.87 h 2.19 l -2.54,4.38 -2.52,-4.38 h 1.88" />
  <path
     id="line8912"
     class="k"
     style="fill:none;stroke:#1b1717;stroke-width:1.47px;stroke-miterlimit:10"
     d="M 321.60001,70.099998 V 121.87" />
  <g id="g8920">
    <path d="M240.7,21.34l3.42-1.29,.32-.09-.32-.1-3.42-1.27v-1.01l4.66,2v.77l-4.66,2v-1.01Z" id="path8914" />
    <text x="246.12" y="23.67" fill="#1b1717" font-family="Inter-Medium, Inter, Arial, sans-serif" font-size="12px" font-weight="500" id="text_s3_get_object_request">S3 GET Object Request</text>
  </g>

  <path
     id="rect8922"
     class="n"
     style="fill:none;stroke:#cf2144;stroke-miterlimit:10"
     d="M 228.67,-0.43000001 H 414.53 V 38.900002 H 228.67 Z" />
  <path
     id="rect8924"
     class="g"
     style="fill:#cf2144"
     d="m 228.67,126.15 h 185.86 v 52.93 H 228.67 Z" />
  <g id="g8938">
    <text x="284" y="159" fill="#ffffff" font-family="Inter-Bold, Inter, Arial, sans-serif" font-size="17px" font-weight="700" id="text_buckit_wordmark">BUCKIT</text>
  </g>

  <path
     id="line8940"
     class="k"
     style="fill:none;stroke:#1b1717;stroke-width:1.47px;stroke-miterlimit:10"
     d="M 321.60001,39.099998 V 54.869999" />
  <path
     id="rect8942"
     class="d"
     style="fill:#f6f6f6"
     d="M 0.02,0.41 H 156.63 V 56.490002 H 0.02 Z" />
  <g
     id="g8976">
    <path
       d="M56.63,14.15v5.82h-.88v-5.82h.88Z"
       id="path8944" />
    <path
       d="M58.69,17.38v2.59h-.85v-4.36h.82v.71h.05c.1-.23,.26-.42,.47-.56,.21-.14,.49-.21,.81-.21,.3,0,.56,.06,.78,.19,.22,.12,.4,.31,.52,.55,.12,.24,.18,.55,.18,.91v2.78h-.85v-2.67c0-.32-.08-.56-.25-.74-.17-.18-.39-.27-.68-.27-.2,0-.37,.04-.52,.13-.15,.08-.27,.21-.36,.37-.09,.16-.13,.36-.13,.59Z"
       id="path8946" />
    <path
       d="M64.65,15.6v.68h-2.38v-.68h2.38Zm-1.74-1.05h.85v4.13c0,.16,.02,.29,.07,.37,.05,.08,.11,.14,.19,.17,.08,.03,.16,.04,.26,.04,.07,0,.13,0,.18-.01,.05,0,.09-.02,.12-.02l.15,.7s-.12,.04-.21,.06c-.09,.02-.2,.03-.34,.03-.22,0-.43-.04-.62-.12-.19-.08-.35-.21-.47-.39-.12-.17-.18-.39-.18-.66v-4.3Z"
       id="path8948" />
    <path
       d="M67.43,20.06c-.43,0-.8-.09-1.11-.28s-.55-.44-.72-.78c-.17-.34-.25-.73-.25-1.18s.08-.84,.25-1.18c.17-.34,.4-.61,.7-.8,.3-.19,.66-.29,1.06-.29,.25,0,.48,.04,.72,.12s.44,.21,.62,.38c.18,.17,.33,.4,.43,.68,.11,.28,.16,.61,.16,1.01v.3h-3.47v-.64h2.64c0-.22-.05-.42-.14-.6s-.22-.31-.38-.41c-.16-.1-.36-.15-.58-.15-.24,0-.45,.06-.62,.17-.18,.12-.31,.27-.41,.45-.1,.19-.14,.39-.14,.61v.5c0,.29,.05,.54,.15,.74,.1,.2,.25,.36,.43,.47,.19,.11,.4,.16,.65,.16,.16,0,.31-.02,.44-.07,.13-.05,.25-.12,.34-.21,.1-.09,.17-.21,.22-.34l.8,.15c-.06,.24-.18,.44-.35,.62-.17,.18-.37,.31-.62,.41-.25,.1-.53,.15-.85,.15Z"
       id="path8950" />
    <path
       d="M70.24,19.97v-4.36h.82v.69h.05c.08-.23,.22-.42,.42-.56,.2-.14,.43-.2,.69-.2,.05,0,.12,0,.19,0s.13,0,.17,.01v.81s-.09-.02-.18-.03c-.09-.01-.17-.02-.26-.02-.2,0-.38,.04-.54,.13-.16,.08-.28,.2-.37,.35-.09,.15-.14,.32-.14,.51v2.66h-.85Z"
       id="path8952" />
    <path
       d="M74.17,17.38v2.59h-.85v-4.36h.82v.71h.05c.1-.23,.26-.42,.47-.56,.21-.14,.49-.21,.81-.21,.3,0,.56,.06,.78,.19,.22,.12,.4,.31,.52,.55,.12,.24,.18,.55,.18,.91v2.78h-.85v-2.67c0-.32-.08-.56-.25-.74-.17-.18-.39-.27-.68-.27-.2,0-.37,.04-.52,.13-.15,.08-.27,.21-.36,.37-.09,.16-.13,.36-.13,.59Z"
       id="path8954" />
    <path
       d="M79.93,20.06c-.41,0-.77-.09-1.07-.28-.3-.19-.54-.45-.71-.79-.17-.34-.25-.73-.25-1.18s.08-.85,.25-1.19c.17-.34,.41-.6,.71-.79,.31-.19,.66-.28,1.07-.28s.77,.09,1.07,.28c.31,.19,.54,.45,.71,.79,.17,.34,.25,.73,.25,1.19s-.08,.84-.25,1.18c-.17,.34-.41,.6-.71,.79-.3,.19-.66,.28-1.07,.28Zm0-.71c.27,0,.48-.07,.66-.21,.17-.14,.3-.33,.39-.56,.08-.23,.13-.49,.13-.77s-.04-.53-.13-.77c-.08-.23-.21-.42-.39-.56-.17-.14-.39-.21-.66-.21s-.49,.07-.66,.21-.3,.33-.39,.56-.13,.49-.13,.77,.04,.54,.13,.77,.21,.42,.39,.56c.18,.14,.4,.21,.66,.21Z"
       id="path8956" />
    <path
       d="M84.55,20.05c-.35,0-.67-.09-.94-.27-.28-.18-.49-.44-.65-.78-.16-.34-.23-.74-.23-1.21s.08-.88,.24-1.21c.16-.34,.38-.59,.65-.77,.28-.18,.59-.27,.94-.27,.27,0,.49,.04,.65,.13,.17,.09,.29,.19,.39,.31,.09,.12,.16,.22,.21,.32h.05v-2.16h.85v5.82h-.83v-.68h-.07c-.05,.09-.12,.2-.22,.32s-.23,.22-.39,.31c-.17,.09-.38,.13-.65,.13Zm.19-.72c.24,0,.45-.06,.62-.19,.17-.13,.3-.31,.39-.54,.09-.23,.13-.5,.13-.81s-.04-.57-.13-.8c-.09-.23-.21-.4-.38-.53-.17-.13-.38-.19-.62-.19s-.47,.07-.64,.2c-.17,.13-.3,.31-.39,.54-.09,.23-.13,.49-.13,.78s.04,.55,.13,.79c.09,.23,.22,.42,.39,.55,.17,.14,.38,.2,.63,.2Z"
       id="path8958" />
    <path
       d="M89.8,20.06c-.43,0-.8-.09-1.11-.28s-.55-.44-.72-.78c-.17-.34-.25-.73-.25-1.18s.08-.84,.25-1.18c.17-.34,.4-.61,.7-.8,.3-.19,.66-.29,1.06-.29,.25,0,.48,.04,.72,.12s.44,.21,.62,.38c.18,.17,.33,.4,.43,.68,.11,.28,.16,.61,.16,1.01v.3h-3.47v-.64h2.64c0-.22-.05-.42-.14-.6s-.22-.31-.38-.41c-.16-.1-.36-.15-.58-.15-.24,0-.45,.06-.62,.17-.18,.12-.31,.27-.41,.45-.1,.19-.14,.39-.14,.61v.5c0,.29,.05,.54,.15,.74,.1,.2,.25,.36,.43,.47,.19,.11,.4,.16,.65,.16,.16,0,.31-.02,.44-.07,.13-.05,.25-.12,.34-.21,.1-.09,.17-.21,.22-.34l.8,.15c-.06,.24-.18,.44-.35,.62-.17,.18-.37,.31-.62,.41-.25,.1-.53,.15-.85,.15Z"
       id="path8960" />
    <path
       d="M94.52,14.91v-.76h4.5v.76h-1.82v5.06h-.88v-5.06h-1.81Z"
       id="path8962" />
    <path
       d="M99.49,19.97v-4.36h.82v.69h.05c.08-.23,.22-.42,.42-.56,.2-.14,.43-.2,.69-.2,.05,0,.12,0,.19,0s.13,0,.17,.01v.81s-.09-.02-.18-.03c-.09-.01-.17-.02-.26-.02-.2,0-.38,.04-.54,.13-.16,.08-.28,.2-.37,.35-.09,.15-.14,.32-.14,.51v2.66h-.85Z"
       id="path8964" />
    <path
       d="M103.79,20.06c-.28,0-.53-.05-.75-.15-.22-.1-.4-.25-.53-.45-.13-.2-.19-.44-.19-.72,0-.25,.05-.45,.14-.61s.22-.29,.38-.38,.34-.16,.54-.21c.2-.05,.4-.08,.61-.11,.26-.03,.47-.06,.64-.08,.16-.02,.28-.05,.35-.1,.07-.05,.11-.12,.11-.22v-.02c0-.25-.07-.44-.21-.58s-.35-.2-.62-.2-.51,.06-.67,.19c-.16,.13-.28,.27-.34,.42l-.8-.18c.09-.27,.23-.48,.42-.64,.18-.16,.39-.28,.63-.36s.49-.11,.75-.11c.17,0,.36,.02,.56,.06,.2,.04,.38,.12,.55,.22s.31,.26,.42,.46,.16,.46,.16,.78v2.9h-.83v-.6h-.03c-.06,.11-.14,.22-.25,.32-.11,.11-.25,.19-.42,.26-.17,.07-.38,.1-.62,.1Zm.18-.68c.23,0,.44-.05,.6-.14,.17-.09,.3-.21,.38-.36,.09-.15,.13-.31,.13-.48v-.56s-.09,.06-.17,.08c-.09,.03-.18,.05-.29,.07s-.22,.03-.32,.05c-.1,.01-.19,.03-.26,.04-.16,.02-.31,.06-.45,.1-.14,.05-.24,.12-.32,.21-.08,.09-.12,.21-.12,.36,0,.21,.08,.37,.23,.48s.35,.16,.59,.16Z"
       id="path8966" />
    <path
       d="M109.16,15.6v.68h-2.47v-.68h2.47Zm-1.79,4.36v-4.87c0-.27,.06-.5,.18-.68,.12-.18,.28-.32,.47-.41,.2-.09,.41-.13,.64-.13,.17,0,.32,.01,.44,.04s.21,.05,.27,.08l-.2,.69s-.09-.02-.15-.04-.14-.02-.23-.02c-.21,0-.35,.05-.44,.15-.09,.1-.13,.25-.13,.44v4.76h-.85Z"
       id="path8968" />
    <path
       d="M112.11,15.6v.68h-2.47v-.68h2.47Zm-1.79,4.36v-4.87c0-.27,.06-.5,.18-.68,.12-.18,.28-.32,.47-.41,.2-.09,.41-.13,.64-.13,.17,0,.32,.01,.44,.04s.21,.05,.27,.08l-.2,.69s-.09-.02-.15-.04-.14-.02-.23-.02c-.21,0-.35,.05-.44,.15-.09,.1-.13,.25-.13,.44v4.76h-.85Z"
       id="path8970" />
    <path
       d="M113.41,14.93c-.15,0-.27-.05-.38-.15-.1-.1-.16-.22-.16-.36s.05-.26,.16-.36c.11-.1,.23-.15,.38-.15s.27,.05,.38,.15c.1,.1,.16,.22,.16,.36s-.05,.26-.16,.36c-.11,.1-.23,.15-.38,.15Zm-.43,5.04v-4.36h.85v4.36h-.85Z"
       id="path8972" />
    <path
       d="M116.81,20.06c-.42,0-.79-.1-1.09-.29-.3-.19-.54-.46-.7-.8-.16-.34-.24-.73-.24-1.17s.08-.83,.25-1.17c.17-.34,.4-.61,.7-.8,.3-.19,.66-.29,1.07-.29,.33,0,.63,.06,.89,.18,.26,.12,.47,.29,.63,.51,.16,.22,.26,.48,.29,.77h-.83c-.05-.2-.15-.38-.31-.53-.16-.15-.38-.22-.65-.22-.24,0-.44,.06-.62,.19s-.31,.3-.41,.53c-.1,.23-.15,.5-.15,.81s.05,.59,.15,.82,.23,.41,.41,.54c.18,.13,.39,.19,.63,.19,.16,0,.31-.03,.44-.09,.13-.06,.24-.15,.33-.26,.09-.11,.15-.25,.19-.4h.83c-.03,.28-.12,.53-.28,.76s-.36,.4-.62,.52c-.26,.13-.56,.19-.9,.19Z"
       id="path8974" />
  </g>
  <g
     id="g9002">
    <path
       d="M64.75,35.77c-.03-.27-.16-.48-.38-.63-.22-.15-.5-.22-.83-.22-.24,0-.44,.04-.62,.11-.17,.08-.31,.18-.4,.31-.1,.13-.14,.28-.14,.44,0,.14,.03,.26,.1,.36,.06,.1,.15,.18,.26,.25s.22,.12,.35,.17c.12,.04,.24,.08,.35,.11l.57,.15c.19,.04,.38,.11,.57,.18,.2,.08,.38,.18,.54,.31,.17,.13,.3,.28,.4,.47,.1,.19,.15,.41,.15,.67,0,.33-.08,.62-.25,.88s-.41,.46-.74,.61c-.32,.15-.71,.22-1.16,.22s-.81-.07-1.13-.21c-.32-.14-.57-.33-.75-.59-.18-.25-.28-.56-.3-.91h.88c.02,.21,.09,.38,.21,.52,.12,.14,.27,.24,.46,.31s.4,.1,.62,.1c.25,0,.47-.04,.66-.12,.19-.08,.35-.19,.46-.33,.11-.14,.17-.31,.17-.5,0-.17-.05-.31-.15-.42-.1-.11-.23-.2-.4-.27-.17-.07-.35-.14-.56-.19l-.69-.19c-.47-.13-.83-.31-1.11-.56-.27-.25-.41-.57-.41-.98,0-.33,.09-.63,.27-.88,.18-.25,.43-.44,.74-.58,.31-.14,.66-.21,1.05-.21s.74,.07,1.04,.21c.3,.14,.54,.33,.71,.57s.27,.52,.27,.83h-.85Z"
       id="path8978" />
    <path
       d="M68.67,40.14c-.39,0-.74-.07-1.04-.2-.31-.13-.55-.32-.72-.56-.18-.24-.27-.52-.29-.83h.89c.01,.17,.07,.32,.17,.45,.1,.13,.24,.22,.41,.29,.17,.07,.36,.1,.57,.1,.23,0,.43-.04,.61-.12,.18-.08,.32-.19,.42-.33,.1-.14,.15-.31,.15-.5s-.05-.37-.15-.52c-.1-.15-.24-.27-.43-.35-.19-.08-.42-.13-.69-.13h-.49v-.72h.49c.22,0,.41-.04,.57-.12,.16-.08,.29-.19,.38-.33,.09-.14,.14-.3,.14-.49s-.04-.34-.12-.47-.19-.24-.34-.31c-.15-.08-.32-.11-.52-.11s-.37,.03-.53,.1c-.16,.07-.3,.17-.4,.3-.1,.13-.16,.28-.16,.46h-.85c0-.31,.1-.59,.28-.83,.18-.24,.41-.42,.7-.56,.29-.13,.62-.2,.97-.2s.7,.07,.97,.22c.27,.14,.48,.34,.63,.58,.15,.24,.22,.5,.22,.79,0,.33-.09,.6-.27,.83s-.43,.38-.73,.46v.04c.39,.06,.69,.21,.9,.46,.21,.25,.32,.56,.32,.92,0,.32-.09,.61-.27,.86-.18,.25-.42,.45-.73,.6-.31,.14-.66,.22-1.06,.22Z"
       id="path8980" />
    <path
       d="M74.48,40.06h-.93l2.09-5.82h1.01l2.09,5.82h-.93l-1.65-4.76h-.05l-1.65,4.76Zm.16-2.28h3.02v.74h-3.02v-.74Z"
       id="path8982" />
    <path
       d="M79.59,40.06v-5.82h2.07c.45,0,.83,.08,1.12,.25s.52,.39,.67,.67c.15,.29,.22,.61,.22,.96s-.07,.68-.22,.96c-.15,.29-.37,.51-.67,.68-.3,.17-.67,.25-1.12,.25h-1.43v-.74h1.35c.29,0,.52-.05,.7-.15s.31-.24,.39-.41c.08-.17,.12-.37,.12-.59s-.04-.42-.12-.59c-.08-.17-.21-.3-.39-.4-.18-.1-.41-.14-.71-.14h-1.1v5.07h-.88Z"
       id="path8984" />
    <path
       d="M85.58,34.24v5.82h-.88v-5.82h.88Z"
       id="path8986" />
    <path
       d="M88.69,35v-.76h4.5v.76h-1.82v5.06h-.88v-5.06h-1.81Z"
       id="path8988" />
    <path
       d="M93.67,40.06v-4.36h.82v.69h.05c.08-.23,.22-.42,.42-.56,.2-.13,.43-.2,.69-.2,.05,0,.12,0,.19,0s.13,0,.17,.01v.81s-.09-.02-.18-.03c-.09-.01-.17-.02-.26-.02-.2,0-.38,.04-.54,.13s-.28,.2-.37,.35c-.09,.15-.14,.32-.14,.51v2.67h-.85Z"
       id="path8990" />
    <path
       d="M97.97,40.16c-.28,0-.53-.05-.75-.16s-.4-.25-.53-.45-.19-.44-.19-.72c0-.25,.05-.45,.14-.61s.22-.29,.38-.38,.34-.16,.54-.21c.2-.05,.4-.08,.61-.11,.26-.03,.47-.06,.64-.08,.16-.02,.28-.05,.35-.1,.07-.04,.11-.12,.11-.22v-.02c0-.25-.07-.44-.21-.58-.14-.14-.35-.21-.62-.21s-.51,.06-.67,.19c-.16,.13-.28,.27-.34,.42l-.8-.18c.09-.27,.23-.48,.42-.64,.18-.16,.39-.28,.63-.36,.24-.07,.49-.11,.75-.11,.17,0,.36,.02,.56,.06,.2,.04,.38,.12,.55,.22,.17,.11,.31,.26,.42,.46,.11,.2,.16,.46,.16,.78v2.9h-.83v-.6h-.03c-.06,.11-.14,.22-.25,.32-.11,.11-.25,.19-.42,.26-.17,.07-.38,.11-.62,.11Zm.18-.68c.23,0,.44-.05,.6-.14,.17-.09,.3-.21,.38-.37,.09-.15,.13-.31,.13-.48v-.56s-.09,.06-.17,.08c-.09,.03-.18,.05-.29,.07-.11,.02-.22,.03-.32,.05-.1,.01-.19,.03-.26,.04-.16,.02-.31,.06-.45,.1-.14,.05-.24,.12-.32,.21-.08,.09-.12,.21-.12,.37,0,.21,.08,.37,.23,.48,.16,.11,.35,.16,.59,.16Z"
       id="path8992" />
    <path
       d="M103.33,35.69v.68h-2.47v-.68h2.47Zm-1.79,4.36v-4.87c0-.27,.06-.5,.18-.68,.12-.18,.28-.32,.47-.41,.2-.09,.41-.13,.64-.13,.17,0,.32,.01,.44,.04s.21,.05,.27,.08l-.2,.69s-.09-.03-.15-.04c-.06-.02-.14-.02-.23-.02-.21,0-.35,.05-.44,.15-.09,.1-.13,.25-.13,.44v4.76h-.85Z"
       id="path8994" />
    <path
       d="M106.28,35.69v.68h-2.47v-.68h2.47Zm-1.79,4.36v-4.87c0-.27,.06-.5,.18-.68,.12-.18,.28-.32,.47-.41,.2-.09,.41-.13,.64-.13,.17,0,.32,.01,.44,.04s.21,.05,.27,.08l-.2,.69s-.09-.03-.15-.04c-.06-.02-.14-.02-.23-.02-.21,0-.35,.05-.44,.15-.09,.1-.13,.25-.13,.44v4.76h-.85Z"
       id="path8996" />
    <path
       d="M107.59,35.02c-.15,0-.27-.05-.38-.15-.1-.1-.16-.22-.16-.36s.05-.26,.16-.36c.11-.1,.23-.15,.38-.15s.27,.05,.38,.15c.1,.1,.16,.22,.16,.36s-.05,.26-.16,.36c-.11,.1-.23,.15-.38,.15Zm-.43,5.04v-4.36h.85v4.36h-.85Z"
       id="path8998" />
    <path
       d="M110.99,40.15c-.42,0-.79-.1-1.09-.29-.3-.19-.54-.46-.7-.8-.16-.34-.24-.73-.24-1.17s.08-.83,.25-1.17,.4-.61,.7-.8c.3-.19,.66-.29,1.07-.29,.33,0,.63,.06,.89,.18,.26,.12,.47,.29,.63,.51,.16,.22,.26,.48,.29,.77h-.83c-.05-.2-.15-.38-.31-.53s-.38-.22-.65-.22c-.24,0-.44,.06-.62,.19s-.31,.3-.41,.53c-.1,.23-.15,.5-.15,.81s.05,.59,.15,.82c.1,.23,.23,.41,.41,.54,.18,.13,.39,.19,.63,.19,.16,0,.31-.03,.44-.09,.13-.06,.24-.15,.33-.26s.15-.25,.19-.4h.83c-.03,.28-.12,.53-.28,.76s-.36,.4-.62,.52-.56,.19-.9,.19Z"
       id="path9000" />
  </g>
  <path
     id="line9004"
     class="l"
     style="fill:none;stroke:#cf2144;stroke-miterlimit:10;stroke-dasharray:0, 0, 3, 3"
     d="M 14.26,17.18 H 46.34" />
  <path
     id="line9006"
     class="m"
     style="fill:none;stroke:#1b1717;stroke-miterlimit:10"
     d="M 14.26,37.150002 H 46.34" />
  <path
     id="rect9008"
     class="i"
     style="fill:#0c1835"
     d="M 228.67,54.060001 H 414.53 V 106.99 H 228.67 Z" />
  <g
     aria-label="LOAD BALANCER"
     transform="translate(262.2 85.41)"
     id="text9020"
     class="f"
     style="font-weight:700;font-size:14px;font-family:Inter-Bold, Inter;font-variation-settings:'slnt' 0, 'wght' 700;fill:#ffffff">
    <path
       d="m 1.26,0 v -9.996 h 2.114 v 8.246 h 4.06 V 0 Z"
       style="letter-spacing:-0.03em"
       id="path14585" />
    <path
       d="m 17.882,-5.012 q 0,1.554 -0.518,2.716 -0.504,1.148 -1.554,1.792 -1.05,0.644 -2.688,0.644 -1.624,0 -2.688,-0.644 -1.0499998,-0.644 -1.5679998,-1.806 -0.504,-1.162 -0.504,-2.716 0,-1.554 0.504,-2.702 0.518,-1.148 1.5679998,-1.778 1.064,-0.644 2.702,-0.644 1.624,0 2.674,0.644 1.05,0.63 1.554,1.792 0.518,1.148 0.518,2.702 z m -7.294,0 q 0,1.568 0.602,2.478 0.602,0.896 1.932,0.896 1.358,0 1.946,-0.896 0.588,-0.91 0.588,-2.478 0,-1.582 -0.588,-2.478 -0.588,-0.896 -1.932,-0.896 -1.344,0 -1.946,0.896 -0.602,0.896 -0.602,2.478 z"
       style="letter-spacing:-0.04em"
       id="path14587" />
    <path
       d="M 25.298,0 24.57,-2.38 H 20.93 L 20.202,0 H 17.92 l 3.528,-10.038 h 2.59 L 27.58,0 Z m -1.96,-6.482 q -0.07,-0.238 -0.182,-0.602 -0.112,-0.364 -0.224,-0.742 -0.112,-0.378 -0.182,-0.658 -0.07,0.28 -0.196,0.7 -0.112,0.406 -0.224,0.784 -0.098,0.364 -0.154,0.518 l -0.714,2.324 h 2.604 z"
       id="path14589" />
    <path
       d="m 37.128008,-5.096 q 0,2.534 -1.442,3.822 -1.428,1.274 -4.018,1.274 h -2.828 v -9.996 h 3.136 q 1.568,0 2.716,0.56 1.162,0.56 1.792,1.652 0.644,1.078 0.644,2.688 z m -2.198,0.056 q 0,-1.666 -0.728,-2.436 -0.728,-0.784 -2.114,-0.784 h -1.134 v 6.51 h 0.91 q 3.066,0 3.066,-3.29 z"
       id="path14591" />
    <path
       d="m 45.948008,-9.996 q 2.002,0 3.024,0.56 1.022,0.56 1.022,1.974 0,0.854 -0.406,1.442 -0.392,0.588 -1.134,0.714 v 0.07 q 0.504,0.098 0.91,0.35 0.406,0.252 0.644,0.728 0.238,0.476 0.238,1.26 0,1.358 -0.98,2.128 -0.98,0.77 -2.688,0.77 h -3.738 v -9.996 z m 0.238,3.962 q 0.924,0 1.274,-0.294 0.364,-0.294 0.364,-0.854 0,-0.574 -0.42,-0.826 -0.42,-0.252 -1.33,-0.252 h -1.12 v 2.226 z m -1.232,1.68 v 2.604 h 1.386 q 0.952,0 1.33,-0.364 0.378,-0.378 0.378,-0.994 0,-0.56 -0.392,-0.896 -0.378,-0.35 -1.386,-0.35 z"
       id="path14593" />
    <path
       d="m 58.36602,0 -0.728,-2.38 h -3.64 L 53.27002,0 h -2.282 l 3.528,-10.038 h 2.59 L 60.64802,0 Z m -1.96,-6.482 q -0.07,-0.238 -0.182,-0.602 -0.112,-0.364 -0.224,-0.742 -0.112,-0.378 -0.182,-0.658 -0.07,0.28 -0.196,0.7 -0.112,0.406 -0.224,0.784 -0.098,0.364 -0.154,0.518 l -0.714,2.324 h 2.604 z"
       id="path14595" />
    <path
       d="m 62.800001,0 v -9.996 h 2.114 v 8.246 h 4.06 V 0 Z"
       style="letter-spacing:0.02em"
       id="path14597" />
    <path
       d="m 77.117998,0 -0.728,-2.38 h -3.64 l -0.728,2.38 h -2.282 l 3.528,-10.038 h 2.59 L 79.399998,0 Z m -1.96,-6.482 q -0.07,-0.238 -0.182,-0.602 -0.112,-0.364 -0.224,-0.742 -0.112,-0.378 -0.182,-0.658 -0.07,0.28 -0.196,0.7 -0.112,0.406 -0.224,0.784 -0.098,0.364 -0.154,0.518 l -0.714,2.324 h 2.604 z"
       id="path14599" />
    <path
       d="m 89.522005,0 h -2.688 l -4.354,-7.56 h -0.056 q 0.028,0.714 0.056,1.428 0.042,0.714 0.07,1.428 V 0 h -1.89 v -9.996 h 2.674 l 4.34,7.49 h 0.042 q -0.014,-0.7 -0.042,-1.386 -0.028,-0.686 -0.056,-1.372 v -4.732 h 1.904 z"
       id="path14601" />
    <path
       d="m 96.284001,-8.372 q -1.218,0 -1.862,0.91 -0.644,0.91 -0.644,2.492 0,1.596 0.588,2.478 0.602,0.868 1.918,0.868 0.616,0 1.218,-0.14 0.616,-0.14 1.33,-0.392 v 1.778 q -0.658,0.266 -1.302,0.392 -0.644,0.126 -1.442,0.126 -1.54,0 -2.548,-0.63 -0.994,-0.644 -1.47,-1.792 -0.476,-1.162 -0.476,-2.702 0,-1.512 0.546,-2.674 0.546,-1.162 1.582,-1.82 1.05,-0.658 2.562,-0.658 0.742,0 1.484,0.196 0.756,0.182 1.442,0.504 l -0.686,1.722 q -0.56,-0.266 -1.134,-0.462 -0.56,-0.196 -1.106,-0.196 z"
       id="path14603" />
    <path
       d="m 106.71399,0 h -5.754 v -9.996 h 5.754 v 1.736 h -3.64 v 2.198 h 3.388 v 1.736 h -3.388 v 2.576 h 3.64 z"
       id="path14605" />
    <path
       d="m 111.71198,-9.996 q 2.044,0 3.01,0.742 0.98,0.742 0.98,2.254 0,0.686 -0.266,1.204 -0.252,0.504 -0.686,0.868 -0.42,0.35 -0.91,0.574 l 2.94,4.354 h -2.352 l -2.38,-3.836 h -1.134 V 0 h -2.114 v -9.996 z m -0.154,1.736 h -0.644 v 2.702 h 0.686 q 1.05,0 1.498,-0.35 0.462,-0.35 0.462,-1.036 0,-0.714 -0.49,-1.008 -0.476,-0.308 -1.512,-0.308 z"
       id="path14607" />
  </g>
  <g
     id="g9054">
    <g
       id="g9028">
      <path
         id="rect9022"
         class="n"
         style="fill:none;stroke:#cf2144;stroke-miterlimit:10"
         d="M 38.939999,230.53 H 143.92 v 39.33 H 38.939999 Z" />
      <g
         aria-label="NODE"
         transform="translate(77.15 254)"
         id="text9026"
         class="p"
         style="font-weight:700;font-size:10px;font-family:Inter-Bold, Inter;font-variation-settings:'slnt' 0, 'wght' 700">
        <path
           d="M 7.23,0 H 5.31 L 2.2,-5.4 H 2.16 q 0.02,0.51 0.04,1.02 0.03,0.51 0.05,1.02 V 0 H 0.9 v -7.14 h 1.91 l 3.1,5.35 H 5.94 Q 5.93,-2.29 5.91,-2.78 5.89,-3.27 5.87,-3.76 v -3.38 h 1.36 z"
           id="path14546" />
        <path
           d="m 15.509997,-3.58 q 0,1.11 -0.37,1.94 -0.36,0.82 -1.11,1.28 -0.75,0.46 -1.92,0.46 -1.16,0 -1.92,-0.46 -0.7499997,-0.46 -1.1199997,-1.29 -0.36,-0.83 -0.36,-1.94 0,-1.11 0.36,-1.93 0.37,-0.82 1.1199997,-1.27 0.76,-0.46 1.93,-0.46 1.16,0 1.91,0.46 0.75,0.45 1.11,1.28 0.37,0.82 0.37,1.93 z m -5.21,0 q 0,1.12 0.43,1.77 0.43,0.64 1.38,0.64 0.97,0 1.39,-0.64 0.42,-0.65 0.42,-1.77 0,-1.13 -0.42,-1.77 -0.42,-0.64 -1.38,-0.64 -0.96,0 -1.39,0.64 -0.43,0.64 -0.43,1.77 z"
           id="path14548" />
        <path
           d="m 22.909993,-3.64 q 0,1.81 -1.03,2.73 -1.02,0.91 -2.87,0.91 h -2.02 v -7.14 h 2.24 q 1.12,0 1.94,0.4 0.83,0.4 1.28,1.18 0.46,0.77 0.46,1.92 z m -1.57,0.04 q 0,-1.19 -0.52,-1.74 -0.52,-0.56 -1.51,-0.56 h -0.81 v 4.65 h 0.65 q 2.19,0 2.19,-2.35 z"
           id="path14550" />
        <path
           d="m 28.49999,0 h -4.11 v -7.14 h 4.11 v 1.24 h -2.6 v 1.57 h 2.42 v 1.24 h -2.42 v 1.84 h 2.6 z"
           id="path14552" />
      </g>
    </g>
    <g
       id="g9036">
      <path
         id="rect9030"
         class="n"
         style="fill:none;stroke:#cf2144;stroke-miterlimit:10"
         d="m 193.09,230.53 h 104.98 v 39.33 H 193.09 Z" />
      <g
         aria-label="NODE"
         transform="translate(231.3 254)"
         id="text9034"
         class="p"
         style="font-weight:700;font-size:10px;font-family:Inter-Bold, Inter;font-variation-settings:'slnt' 0, 'wght' 700">
        <path
           d="M 7.23,0 H 5.31 L 2.2,-5.4 H 2.16 q 0.02,0.51 0.04,1.02 0.03,0.51 0.05,1.02 V 0 H 0.9 v -7.14 h 1.91 l 3.1,5.35 H 5.94 Q 5.93,-2.29 5.91,-2.78 5.89,-3.27 5.87,-3.76 v -3.38 h 1.36 z"
           id="path14556" />
        <path
           d="m 15.509997,-3.58 q 0,1.11 -0.37,1.94 -0.36,0.82 -1.11,1.28 -0.75,0.46 -1.92,0.46 -1.16,0 -1.92,-0.46 -0.7499997,-0.46 -1.1199997,-1.29 -0.36,-0.83 -0.36,-1.94 0,-1.11 0.36,-1.93 0.37,-0.82 1.1199997,-1.27 0.76,-0.46 1.93,-0.46 1.16,0 1.91,0.46 0.75,0.45 1.11,1.28 0.37,0.82 0.37,1.93 z m -5.21,0 q 0,1.12 0.43,1.77 0.43,0.64 1.38,0.64 0.97,0 1.39,-0.64 0.42,-0.65 0.42,-1.77 0,-1.13 -0.42,-1.77 -0.42,-0.64 -1.38,-0.64 -0.96,0 -1.39,0.64 -0.43,0.64 -0.43,1.77 z"
           id="path14558" />
        <path
           d="m 22.909993,-3.64 q 0,1.81 -1.03,2.73 -1.02,0.91 -2.87,0.91 h -2.02 v -7.14 h 2.24 q 1.12,0 1.94,0.4 0.83,0.4 1.28,1.18 0.46,0.77 0.46,1.92 z m -1.57,0.04 q 0,-1.19 -0.52,-1.74 -0.52,-0.56 -1.51,-0.56 h -0.81 v 4.65 h 0.65 q 2.19,0 2.19,-2.35 z"
           id="path14560" />
        <path
           d="m 28.49999,0 h -4.11 v -7.14 h 4.11 v 1.24 h -2.6 v 1.57 h 2.42 v 1.24 h -2.42 v 1.84 h 2.6 z"
           id="path14562" />
      </g>
    </g>
    <g
       id="g9044">
      <path
         id="rect9038"
         class="n"
         style="fill:none;stroke:#cf2144;stroke-miterlimit:10"
         d="m 347.25,230.53 h 104.98 v 39.33 H 347.25 Z" />
      <g
         aria-label="NODE"
         transform="translate(385.46 254)"
         id="text9042"
         class="p"
         style="font-weight:700;font-size:10px;font-family:Inter-Bold, Inter;font-variation-settings:'slnt' 0, 'wght' 700">
        <path
           d="M 7.23,0 H 5.31 L 2.2,-5.4 H 2.16 q 0.02,0.51 0.04,1.02 0.03,0.51 0.05,1.02 V 0 H 0.9 v -7.14 h 1.91 l 3.1,5.35 H 5.94 Q 5.93,-2.29 5.91,-2.78 5.89,-3.27 5.87,-3.76 v -3.38 h 1.36 z"
           id="path14566" />
        <path
           d="m 15.509997,-3.58 q 0,1.11 -0.37,1.94 -0.36,0.82 -1.11,1.28 -0.75,0.46 -1.92,0.46 -1.16,0 -1.92,-0.46 -0.7499997,-0.46 -1.1199997,-1.29 -0.36,-0.83 -0.36,-1.94 0,-1.11 0.36,-1.93 0.37,-0.82 1.1199997,-1.27 0.76,-0.46 1.93,-0.46 1.16,0 1.91,0.46 0.75,0.45 1.11,1.28 0.37,0.82 0.37,1.93 z m -5.21,0 q 0,1.12 0.43,1.77 0.43,0.64 1.38,0.64 0.97,0 1.39,-0.64 0.42,-0.65 0.42,-1.77 0,-1.13 -0.42,-1.77 -0.42,-0.64 -1.38,-0.64 -0.96,0 -1.39,0.64 -0.43,0.64 -0.43,1.77 z"
           id="path14568" />
        <path
           d="m 22.909993,-3.64 q 0,1.81 -1.03,2.73 -1.02,0.91 -2.87,0.91 h -2.02 v -7.14 h 2.24 q 1.12,0 1.94,0.4 0.83,0.4 1.28,1.18 0.46,0.77 0.46,1.92 z m -1.57,0.04 q 0,-1.19 -0.52,-1.74 -0.52,-0.56 -1.51,-0.56 h -0.81 v 4.65 h 0.65 q 2.19,0 2.19,-2.35 z"
           id="path14570" />
        <path
           d="m 28.49999,0 h -4.11 v -7.14 h 4.11 v 1.24 h -2.6 v 1.57 h 2.42 v 1.24 h -2.42 v 1.84 h 2.6 z"
           id="path14572" />
      </g>
    </g>
    <g
       id="g9052">
      <path
         id="rect9046"
         class="n"
         style="fill:none;stroke:#cf2144;stroke-miterlimit:10"
         d="M 501.39999,230.53 H 606.38 v 39.33 H 501.39999 Z" />
      <g
         aria-label="NODE"
         transform="translate(539.61 254)"
         id="text9050"
         class="p"
         style="font-weight:700;font-size:10px;font-family:Inter-Bold, Inter;font-variation-settings:'slnt' 0, 'wght' 700">
        <path
           d="M 7.23,0 H 5.31 L 2.2,-5.4 H 2.16 q 0.02,0.51 0.04,1.02 0.03,0.51 0.05,1.02 V 0 H 0.9 v -7.14 h 1.91 l 3.1,5.35 H 5.94 Q 5.93,-2.29 5.91,-2.78 5.89,-3.27 5.87,-3.76 v -3.38 h 1.36 z"
           id="path14576" />
        <path
           d="m 15.509997,-3.58 q 0,1.11 -0.37,1.94 -0.36,0.82 -1.11,1.28 -0.75,0.46 -1.92,0.46 -1.16,0 -1.92,-0.46 -0.7499997,-0.46 -1.1199997,-1.29 -0.36,-0.83 -0.36,-1.94 0,-1.11 0.36,-1.93 0.37,-0.82 1.1199997,-1.27 0.76,-0.46 1.93,-0.46 1.16,0 1.91,0.46 0.75,0.45 1.11,1.28 0.37,0.82 0.37,1.93 z m -5.21,0 q 0,1.12 0.43,1.77 0.43,0.64 1.38,0.64 0.97,0 1.39,-0.64 0.42,-0.65 0.42,-1.77 0,-1.13 -0.42,-1.77 -0.42,-0.64 -1.38,-0.64 -0.96,0 -1.39,0.64 -0.43,0.64 -0.43,1.77 z"
           id="path14578" />
        <path
           d="m 22.909993,-3.64 q 0,1.81 -1.03,2.73 -1.02,0.91 -2.87,0.91 h -2.02 v -7.14 h 2.24 q 1.12,0 1.94,0.4 0.83,0.4 1.28,1.18 0.46,0.77 0.46,1.92 z m -1.57,0.04 q 0,-1.19 -0.52,-1.74 -0.52,-0.56 -1.51,-0.56 h -0.81 v 4.65 h 0.65 q 2.19,0 2.19,-2.35 z"
           id="path14580" />
        <path
           d="m 28.49999,0 h -4.11 v -7.14 h 4.11 v 1.24 h -2.6 v 1.57 h 2.42 v 1.24 h -2.42 v 1.84 h 2.6 z"
           id="path14582" />
      </g>
    </g>
  </g>
  <g
     id="g9088">
    <g
       id="g9062">
      <path
         id="rect9056"
         class="n"
         style="fill:none;stroke:#cf2144;stroke-miterlimit:10"
         d="M 38.939999,312.94 H 143.92 v 39.33 H 38.939999 Z" />
      <g
         aria-label="NODE"
         transform="translate(77.15 336.41)"
         id="text9060"
         class="p"
         style="font-weight:700;font-size:10px;font-family:Inter-Bold, Inter;font-variation-settings:'slnt' 0, 'wght' 700">
        <path
           d="M 7.23,0 H 5.31 L 2.2,-5.4 H 2.16 q 0.02,0.51 0.04,1.02 0.03,0.51 0.05,1.02 V 0 H 0.9 v -7.14 h 1.91 l 3.1,5.35 H 5.94 Q 5.93,-2.29 5.91,-2.78 5.89,-3.27 5.87,-3.76 v -3.38 h 1.36 z"
           id="path14506" />
        <path
           d="m 15.509997,-3.58 q 0,1.11 -0.37,1.94 -0.36,0.82 -1.11,1.28 -0.75,0.46 -1.92,0.46 -1.16,0 -1.92,-0.46 -0.7499997,-0.46 -1.1199997,-1.29 -0.36,-0.83 -0.36,-1.94 0,-1.11 0.36,-1.93 0.37,-0.82 1.1199997,-1.27 0.76,-0.46 1.93,-0.46 1.16,0 1.91,0.46 0.75,0.45 1.11,1.28 0.37,0.82 0.37,1.93 z m -5.21,0 q 0,1.12 0.43,1.77 0.43,0.64 1.38,0.64 0.97,0 1.39,-0.64 0.42,-0.65 0.42,-1.77 0,-1.13 -0.42,-1.77 -0.42,-0.64 -1.38,-0.64 -0.96,0 -1.39,0.64 -0.43,0.64 -0.43,1.77 z"
           id="path14508" />
        <path
           d="m 22.909993,-3.64 q 0,1.81 -1.03,2.73 -1.02,0.91 -2.87,0.91 h -2.02 v -7.14 h 2.24 q 1.12,0 1.94,0.4 0.83,0.4 1.28,1.18 0.46,0.77 0.46,1.92 z m -1.57,0.04 q 0,-1.19 -0.52,-1.74 -0.52,-0.56 -1.51,-0.56 h -0.81 v 4.65 h 0.65 q 2.19,0 2.19,-2.35 z"
           id="path14510" />
        <path
           d="m 28.49999,0 h -4.11 v -7.14 h 4.11 v 1.24 h -2.6 v 1.57 h 2.42 v 1.24 h -2.42 v 1.84 h 2.6 z"
           id="path14512" />
      </g>
    </g>
    <g
       id="g9070">
      <path
         id="rect9064"
         class="n"
         style="fill:none;stroke:#cf2144;stroke-miterlimit:10"
         d="m 193.09,312.94 h 104.98 v 39.33 H 193.09 Z" />
      <g
         aria-label="NODE"
         transform="translate(231.3 336.41)"
         id="text9068"
         class="p"
         style="font-weight:700;font-size:10px;font-family:Inter-Bold, Inter;font-variation-settings:'slnt' 0, 'wght' 700">
        <path
           d="M 7.23,0 H 5.31 L 2.2,-5.4 H 2.16 q 0.02,0.51 0.04,1.02 0.03,0.51 0.05,1.02 V 0 H 0.9 v -7.14 h 1.91 l 3.1,5.35 H 5.94 Q 5.93,-2.29 5.91,-2.78 5.89,-3.27 5.87,-3.76 v -3.38 h 1.36 z"
           id="path14516" />
        <path
           d="m 15.509997,-3.58 q 0,1.11 -0.37,1.94 -0.36,0.82 -1.11,1.28 -0.75,0.46 -1.92,0.46 -1.16,0 -1.92,-0.46 -0.7499997,-0.46 -1.1199997,-1.29 -0.36,-0.83 -0.36,-1.94 0,-1.11 0.36,-1.93 0.37,-0.82 1.1199997,-1.27 0.76,-0.46 1.93,-0.46 1.16,0 1.91,0.46 0.75,0.45 1.11,1.28 0.37,0.82 0.37,1.93 z m -5.21,0 q 0,1.12 0.43,1.77 0.43,0.64 1.38,0.64 0.97,0 1.39,-0.64 0.42,-0.65 0.42,-1.77 0,-1.13 -0.42,-1.77 -0.42,-0.64 -1.38,-0.64 -0.96,0 -1.39,0.64 -0.43,0.64 -0.43,1.77 z"
           id="path14518" />
        <path
           d="m 22.909993,-3.64 q 0,1.81 -1.03,2.73 -1.02,0.91 -2.87,0.91 h -2.02 v -7.14 h 2.24 q 1.12,0 1.94,0.4 0.83,0.4 1.28,1.18 0.46,0.77 0.46,1.92 z m -1.57,0.04 q 0,-1.19 -0.52,-1.74 -0.52,-0.56 -1.51,-0.56 h -0.81 v 4.65 h 0.65 q 2.19,0 2.19,-2.35 z"
           id="path14520" />
        <path
           d="m 28.49999,0 h -4.11 v -7.14 h 4.11 v 1.24 h -2.6 v 1.57 h 2.42 v 1.24 h -2.42 v 1.84 h 2.6 z"
           id="path14522" />
      </g>
    </g>
    <g
       id="g9078">
      <path
         id="rect9072"
         class="n"
         style="fill:none;stroke:#cf2144;stroke-miterlimit:10"
         d="m 347.25,312.94 h 104.98 v 39.33 H 347.25 Z" />
      <g
         aria-label="NODE"
         transform="translate(385.46 336.41)"
         id="text9076"
         class="p"
         style="font-weight:700;font-size:10px;font-family:Inter-Bold, Inter;font-variation-settings:'slnt' 0, 'wght' 700">
        <path
           d="M 7.23,0 H 5.31 L 2.2,-5.4 H 2.16 q 0.02,0.51 0.04,1.02 0.03,0.51 0.05,1.02 V 0 H 0.9 v -7.14 h 1.91 l 3.1,5.35 H 5.94 Q 5.93,-2.29 5.91,-2.78 5.89,-3.27 5.87,-3.76 v -3.38 h 1.36 z"
           id="path14526" />
        <path
           d="m 15.509997,-3.58 q 0,1.11 -0.37,1.94 -0.36,0.82 -1.11,1.28 -0.75,0.46 -1.92,0.46 -1.16,0 -1.92,-0.46 -0.7499997,-0.46 -1.1199997,-1.29 -0.36,-0.83 -0.36,-1.94 0,-1.11 0.36,-1.93 0.37,-0.82 1.1199997,-1.27 0.76,-0.46 1.93,-0.46 1.16,0 1.91,0.46 0.75,0.45 1.11,1.28 0.37,0.82 0.37,1.93 z m -5.21,0 q 0,1.12 0.43,1.77 0.43,0.64 1.38,0.64 0.97,0 1.39,-0.64 0.42,-0.65 0.42,-1.77 0,-1.13 -0.42,-1.77 -0.42,-0.64 -1.38,-0.64 -0.96,0 -1.39,0.64 -0.43,0.64 -0.43,1.77 z"
           id="path14528" />
        <path
           d="m 22.909993,-3.64 q 0,1.81 -1.03,2.73 -1.02,0.91 -2.87,0.91 h -2.02 v -7.14 h 2.24 q 1.12,0 1.94,0.4 0.83,0.4 1.28,1.18 0.46,0.77 0.46,1.92 z m -1.57,0.04 q 0,-1.19 -0.52,-1.74 -0.52,-0.56 -1.51,-0.56 h -0.81 v 4.65 h 0.65 q 2.19,0 2.19,-2.35 z"
           id="path14530" />
        <path
           d="m 28.49999,0 h -4.11 v -7.14 h 4.11 v 1.24 h -2.6 v 1.57 h 2.42 v 1.24 h -2.42 v 1.84 h 2.6 z"
           id="path14532" />
      </g>
    </g>
    <g
       id="g9086">
      <path
         id="rect9080"
         class="n"
         style="fill:none;stroke:#cf2144;stroke-miterlimit:10"
         d="M 501.39999,312.94 H 606.38 v 39.33 H 501.39999 Z" />
      <g
         aria-label="NODE"
         transform="translate(539.61 336.41)"
         id="text9084"
         class="p"
         style="font-weight:700;font-size:10px;font-family:Inter-Bold, Inter;font-variation-settings:'slnt' 0, 'wght' 700">
        <path
           d="M 7.23,0 H 5.31 L 2.2,-5.4 H 2.16 q 0.02,0.51 0.04,1.02 0.03,0.51 0.05,1.02 V 0 H 0.9 v -7.14 h 1.91 l 3.1,5.35 H 5.94 Q 5.93,-2.29 5.91,-2.78 5.89,-3.27 5.87,-3.76 v -3.38 h 1.36 z"
           id="path14536" />
        <path
           d="m 15.509997,-3.58 q 0,1.11 -0.37,1.94 -0.36,0.82 -1.11,1.28 -0.75,0.46 -1.92,0.46 -1.16,0 -1.92,-0.46 -0.7499997,-0.46 -1.1199997,-1.29 -0.36,-0.83 -0.36,-1.94 0,-1.11 0.36,-1.93 0.37,-0.82 1.1199997,-1.27 0.76,-0.46 1.93,-0.46 1.16,0 1.91,0.46 0.75,0.45 1.11,1.28 0.37,0.82 0.37,1.93 z m -5.21,0 q 0,1.12 0.43,1.77 0.43,0.64 1.38,0.64 0.97,0 1.39,-0.64 0.42,-0.65 0.42,-1.77 0,-1.13 -0.42,-1.77 -0.42,-0.64 -1.38,-0.64 -0.96,0 -1.39,0.64 -0.43,0.64 -0.43,1.77 z"
           id="path14538" />
        <path
           d="m 22.909993,-3.64 q 0,1.81 -1.03,2.73 -1.02,0.91 -2.87,0.91 h -2.02 v -7.14 h 2.24 q 1.12,0 1.94,0.4 0.83,0.4 1.28,1.18 0.46,0.77 0.46,1.92 z m -1.57,0.04 q 0,-1.19 -0.52,-1.74 -0.52,-0.56 -1.51,-0.56 h -0.81 v 4.65 h 0.65 q 2.19,0 2.19,-2.35 z"
           id="path14540" />
        <path
           d="m 28.49999,0 h -4.11 v -7.14 h 4.11 v 1.24 h -2.6 v 1.57 h 2.42 v 1.24 h -2.42 v 1.84 h 2.6 z"
           id="path14542" />
      </g>
    </g>
  </g>
  <path
     id="line9090"
     class="l"
     style="fill:none;stroke:#cf2144;stroke-miterlimit:10;stroke-dasharray:0, 0, 3, 3"
     d="M 91.940002,291.85001 H 553.90002" />
  <path
     id="line9092"
     class="l"
     style="fill:none;stroke:#cf2144;stroke-miterlimit:10;stroke-dasharray:0, 0, 3, 3"
     d="m 90.410004,278.03 v 27.5" />
  <path
     id="polyline9094"
     class="g"
     style="fill:#cf2144"
     d="m 245.93,304.1 h 2.19 l -2.53,4.38 -2.53,-4.38 h 1.88" />
  <path
     id="polyline9096"
     class="g"
     style="fill:#cf2144"
     d="m 245.24,278.22 h -2.18 l 2.53,-4.38 2.53,4.38 h -1.89" />
  <path
     id="line9098"
     class="l"
     style="fill:none;stroke:#cf2144;stroke-miterlimit:10;stroke-dasharray:0, 0, 3, 3"
     d="m 245.59,278.03 v 27.5" />
  <path
     id="polyline9100"
     class="g"
     style="fill:#cf2144"
     d="m 400.09,304.1 h 2.18 l -2.53,4.38 -2.53,-4.38 h 1.89" />
  <path
     id="polyline9102"
     class="g"
     style="fill:#cf2144"
     d="m 399.39,278.22 h -2.18 l 2.53,-4.38 2.53,4.38 h -1.89" />
  <path
     id="line9104"
     class="l"
     style="fill:none;stroke:#cf2144;stroke-miterlimit:10;stroke-dasharray:0, 0, 3, 3"
     d="m 399.73999,278.03 v 27.5" />
  <path
     id="polyline9106"
     class="g"
     style="fill:#cf2144"
     d="m 551.71,304.1 h 2.19 l -2.53,4.38 -2.53,-4.38 h 1.88" />
  <path
     id="polyline9108"
     class="g"
     style="fill:#cf2144"
     d="m 551.02,278.22 h -2.18 l 2.53,-4.38 2.53,4.38 h -1.89" />
  <path
     id="line9110"
     class="l"
     style="fill:none;stroke:#cf2144;stroke-miterlimit:10;stroke-dasharray:0, 0, 3, 3"
     d="m 551.37,278.03 v 27.5" />
</svg>
